<svg width="110" height="32" viewBox="0 0 110 32" fill="none" xmlns="http://www.w3.org/2000/svg">
<path d="M33.1396 10.8284C34.5945 12.4117 35.3648 15.0219 35.3648 18.6592V30.769H29.3312V18.4452C29.3312 15.1075 28.0475 13.4386 25.5228 13.4386C24.1963 13.4386 23.1265 13.9094 22.3563 14.8508C21.5433 15.7922 21.1581 17.0759 21.1581 18.702V30.769H15.1246V18.4452C15.1246 15.1075 13.8409 13.4386 11.2734 13.4386C9.94688 13.4386 8.87711 13.9521 8.10687 14.8935C7.33663 15.8349 6.95151 17.1187 6.95151 18.7447V30.769H0.917969V8.73163H6.18127L6.73755 11.4703C7.465 10.5289 8.36361 9.80141 9.3906 9.28791C10.4176 8.77442 11.7013 8.51767 13.2418 8.47488C16.3655 8.47488 18.5479 9.71583 19.7888 12.1977C20.5591 10.9996 21.6288 10.1009 22.9126 9.45908C24.1963 8.81721 25.694 8.47488 27.3628 8.47488C29.7164 8.47488 31.642 9.28791 33.1396 10.8284Z" fill="black"/>
<path d="M39.4965 14.0683C40.4379 12.3566 41.7216 11.0729 43.3904 10.1315C45.0593 9.19011 46.9849 8.7194 49.21 8.7194C51.4352 8.7194 53.3608 9.19011 55.0724 10.0459C56.784 10.9017 58.1106 12.1427 59.052 13.726C59.9934 15.3092 60.5069 17.1492 60.5497 19.2888C60.5497 20.059 60.4641 20.7437 60.3785 21.3428H44.4174V21.5139C44.5458 23.14 45.0593 24.3809 45.9579 25.2795C46.8137 26.221 48.0547 26.6489 49.5951 26.6489C50.7933 26.6489 51.8203 26.3921 52.6333 25.8786C53.4463 25.3651 54.0026 24.5521 54.2594 23.5251H60.2073C59.9506 24.98 59.3943 26.3065 58.5385 27.4619C57.6399 28.66 56.4845 29.5587 55.0296 30.2433C53.5747 30.928 51.9059 31.2275 50.0231 31.2275C47.5412 31.2275 45.4444 30.7996 43.6472 29.8582C41.85 28.9596 40.4807 27.6758 39.5392 25.9642C38.5978 24.2526 38.1271 22.2842 38.1271 20.0162C38.1271 17.7483 38.5551 15.7799 39.4965 14.0683ZM54.5161 17.406C54.3022 16.0795 53.7459 15.0525 52.8473 14.325C51.7497 13.4365 50.702 15.0769 49.3327 15.0769C48.0062 15.0769 47.0587 13.6098 46.1291 14.3678C45.2305 15.1381 44.717 16.1223 44.5458 17.406H54.5161Z" fill="black"/>
<path d="M65.3466 13.8238H61.7094V8.73163H65.3466V2.56972H71.3801V8.73163H76.3867V13.8238H71.3801V23.4518C71.3801 24.222 71.5085 24.7783 71.8508 25.1206C72.1932 25.4629 72.7495 25.6341 73.5197 25.6341H76.6434V30.7262H71.6369C67.4434 30.7262 65.3466 28.6295 65.3466 24.436V13.8238Z" fill="black"/>
<path d="M100.714 25.6341V30.7262H97.6331C94.8517 30.7262 93.4824 29.5281 93.568 27.1318C92.755 28.4155 91.7708 29.3569 90.6154 29.9988C89.4172 30.6834 88.0051 30.983 86.3791 30.983C83.8972 30.983 81.9288 30.4267 80.4311 29.3141C78.9334 28.2016 78.206 26.5755 78.206 24.5215C78.206 22.2108 79.0618 20.4136 80.7735 19.1299C82.4851 17.8461 85.0098 17.2043 88.3047 17.2043H92.6694V16.1345C92.6694 15.1503 92.2842 14.3801 91.5568 13.781C90.7866 13.1819 89.8024 12.8824 88.5614 12.8824C87.4489 12.8824 86.5075 13.1391 85.8228 13.6098C85.0954 14.1233 84.6674 14.7652 84.5391 15.5782H78.7195C78.8906 13.3531 79.9176 11.5986 81.7149 10.3577C83.5121 9.11675 85.8656 8.47488 88.861 8.47488C91.9419 8.47488 94.3382 9.15954 96.0499 10.5289C97.7615 11.8982 98.6173 13.9094 98.6173 16.4768V24.222C98.6173 24.7783 98.7029 25.1634 98.9597 25.3346C99.1736 25.5485 99.5159 25.6341 100.029 25.6341H100.714ZM92.6694 21.2266H88.2619C86.9782 21.2266 85.994 21.4834 85.3093 21.9969C84.6246 22.5104 84.2823 23.195 84.2823 24.0936C84.2823 24.8639 84.5391 25.5057 85.1381 25.9336C85.7372 26.4043 86.5075 26.6183 87.5344 26.6183C89.0749 26.6183 90.3159 26.1904 91.2573 25.2918C92.1559 24.3932 92.6266 23.195 92.6694 21.6545V21.2266Z" fill="black"/>
<path d="M103.048 0.772491H109.082V30.7262H103.048V0.772491Z" fill="black"/>
</svg>
